<?xml version="1.0" encoding="utf-8"?>
<!-- Generator: Adobe Illustrator 23.1.0, SVG Export Plug-In . SVG Version: 6.00 Build 0)  -->
<svg version="1.1" id="Capa_1" xmlns="http://www.w3.org/2000/svg" xmlns:xlink="http://www.w3.org/1999/xlink" x="0px" y="0px"
	 viewBox="0 0 789 751.2" style="enable-background:new 0 0 789 751.2;" xml:space="preserve">
<style type="text/css">
	.st0{fill:none;stroke:#6E6E6E;stroke-width:5;}
</style>
<title>blog</title>
<path class="st0" d="M411.1,575.6c7.7-5.9,17.2-9,26.9-8.9c15.5,0,27.5,5.1,35.9,15.4c8.4,10.2,12.6,25,12.6,44.1V719h-177v-90.3
	c0-18,3.9-32.2,11.8-42.5c7.8-10.3,19.3-15.5,34.3-15.5c10.3,0,19.1,2.7,26.1,8.1c7.1,5.4,12,13,14.1,21.6
	C398.2,589.8,403.3,581.5,411.1,575.6z M439.1,627.1c-1.9-2.4-5-3.6-9.4-3.6c-8.5,0-12.8,4.9-12.8,14.8v25.3h25v-25.3
	C442,633.2,441,629.5,439.1,627.1z M378.4,663.5V642c0-5-1-8.7-3-11.1c-2-2.4-5.1-3.6-9.3-3.6c-4.3,0-7.5,1.2-9.6,3.6
	c-2.1,2.4-3.1,6.1-3.1,11.1v21.5H378.4z"/>
<path class="st0" d="M444.5,492.5V439h42v109h-177v-55.5H444.5z"/>
<path class="st0" d="M476.5,381.1c-7.7,13.8-18.9,25.2-32.5,33.1c-13.8,8.2-29.4,12.3-46.8,12.3c-17.3,0-32.9-4.1-46.8-12.3
	c-13.6-7.9-24.8-19.4-32.4-33.1c-15.5-28.6-15.5-63.1,0-91.6c7.6-13.7,18.8-25.1,32.4-32.9c13.8-8.1,29.4-12.1,46.8-12.1
	s32.9,4,46.8,12.1c13.6,7.9,24.8,19.3,32.5,33C492.2,318.1,492.2,352.6,476.5,381.1L476.5,381.1z M425.8,309.7c-7.1-6-16.6-9-28.6-9
	c-12.2,0-21.8,3-28.9,9c-7.1,6-10.6,14.5-10.6,25.5c0,11.2,3.5,19.8,10.6,25.8c7.1,6,16.7,9,28.9,9c12,0,21.5-3,28.6-9
	c7.1-6,10.6-14.6,10.6-25.8C436.5,324.2,432.9,315.7,425.8,309.7L425.8,309.7z"/>
<path class="st0" d="M424.7,115.2c-2.2-3.6-5.4-6.4-9.3-8.1c-4.6-2-9.5-3-14.5-2.9c-10.7,0-18.9,3.5-24.8,10.4s-8.8,16.4-8.8,28.4
	c0,13.8,3.3,24.2,9.8,31s16.5,10.2,30,10.3c12.8,0,23.2-5.2,31-15.5H394v-39.3h90.2V185c-8,13.5-18.8,25.1-31.8,33.9
	c-13.5,9.4-30.6,14.1-51.3,14.1c-18.3,0-34.3-3.8-47.9-11.4c-13.3-7.3-24.2-18.4-31.3-31.9c-7.2-13.7-10.9-29.2-10.9-46.8
	s3.6-33.1,10.9-46.8c7-13.4,17.9-24.5,31.1-31.9c13.5-7.6,29.3-11.4,47.5-11.4c23.2,0,42.1,5.6,56.6,16.7s23.2,26.3,25.9,45.5H424.7
	z"/>
</svg>
