<?xml version="1.0" encoding="utf-8"?>
<!-- Generator: Adobe Illustrator 25.2.0, SVG Export Plug-In . SVG Version: 6.00 Build 0)  -->
<svg version="1.1" id="Capa_1" xmlns="http://www.w3.org/2000/svg" xmlns:xlink="http://www.w3.org/1999/xlink" x="0px" y="0px"
	 viewBox="0 0 89 17.5" style="enable-background:new 0 0 89 17.5;" xml:space="preserve">
<style type="text/css">
	.st0{fill:#FFFFFF;}
</style>
<g id="Capa_1_1_">
	<path class="st0" d="M14.9,12.7h-2.6c-0.3,0-0.5,0.2-0.6,0.4c-0.1,0.2-0.2,0.3-0.3,0.5h3.9c0-0.1,0.1-0.2,0.1-0.4
		C15.5,12.9,15.3,12.7,14.9,12.7z"/>
	<path class="st0" d="M11.7,8.3c0.1,0.3,0.3,0.4,0.6,0.4h2.6c0.3,0,0.5-0.1,0.5-0.4c0-0.1,0-0.2,0-0.2V8h-3.9
		C11.6,8.1,11.7,8.2,11.7,8.3z"/>
	<path class="st0" d="M1.4,5.9h13c-0.5-0.7-1.1-1.3-1.7-1.8H3.2C2.5,4.7,1.9,5.3,1.4,5.9z"/>
	<path class="st0" d="M0.5,13.7h3.9c-0.4-0.5-0.7-1.1-0.8-1.8H0C0.1,12.5,0.3,13.1,0.5,13.7z"/>
	<path class="st0" d="M0.4,8C0.2,8.6,0.1,9.2,0,9.8h3.6C3.6,9.2,3.9,8.5,4.2,8H0.4z"/>
	<path class="st0" d="M1.6,15.7c0.6,0.7,1.2,1.3,2,1.8h8.6c0.8-0.5,1.4-1.1,1.9-1.8H1.6z"/>
	<path class="st0" d="M17.1,4.2v1.8h9.1c0,0,0-0.1,0-0.1V4.2H17.1z"/>
	<path class="st0" d="M17.1,8v1.8h8.6V9.5c0-0.3-0.2-0.5-0.5-0.5c0,0,0,0-0.1,0h-4.5V8H17.1z"/>
	<path class="st0" d="M17.1,11.9v1.8h3.5v-1.4h4.5c0.3,0,0.5-0.1,0.5-0.4L17.1,11.9z"/>
	<rect x="17.1" y="15.7" class="st0" width="9.3" height="1.8"/>
	<polygon class="st0" points="33.9,13.7 38.3,13.7 39.1,11.9 36.1,11.9 36.1,11.9 36.1,11.9 33.1,11.9 	"/>
	<path class="st0" d="M34.8,15.7c0.1,0.2,0.3,0.3,0.6,0.3h1.5c0.2,0,0.5-0.1,0.6-0.3L34.8,15.7z"/>
	<rect x="28.4" y="11.9" class="st0" width="3.5" height="1.8"/>
	<polygon class="st0" points="33.6,5.9 32.8,4.2 28.4,4.2 28.4,5.9 	"/>
	<polygon class="st0" points="31.9,9.8 31.9,9 32.2,9.8 35.2,9.8 34.5,8 28.4,8 28.4,9.8 	"/>
	<polygon class="st0" points="37.7,8 37,9.8 40,9.8 40.3,9 40.3,9.8 43.8,9.8 43.8,8 	"/>
	<polygon class="st0" points="39.3,4.2 38.6,5.9 43.8,5.9 43.8,4.2 	"/>
	<rect x="40.3" y="11.9" class="st0" width="3.5" height="1.8"/>
	<rect x="28.4" y="15.7" class="st0" width="3.5" height="1.8"/>
	<rect x="40.3" y="15.7" class="st0" width="3.5" height="1.8"/>
	<path class="st0" d="M46.5,8v1.8h8.6V9.5c0-0.3-0.2-0.5-0.5-0.5c0,0,0,0-0.1,0H50V8H46.5z"/>
	<path class="st0" d="M46.5,4.2v1.8h9.2c0,0,0-0.1,0-0.1V4.2H46.5z"/>
	<path class="st0" d="M46.5,11.9v1.8H50v-1.4h4.5c0.3,0,0.5-0.1,0.5-0.4L46.5,11.9z"/>
	<rect x="46.5" y="15.7" class="st0" width="9.3" height="1.8"/>
	<rect x="57.7" y="11.9" class="st0" width="3.5" height="1.8"/>
	<rect x="57.7" y="15.7" class="st0" width="3.5" height="1.8"/>
	<rect x="57.7" y="4.2" class="st0" width="3.5" height="1.8"/>
	<rect x="57.7" y="8" class="st0" width="3.5" height="1.8"/>
	<polygon class="st0" points="64.3,13.7 68.2,13.7 67.8,11.9 63.8,11.9 	"/>
	<polygon class="st0" points="64.8,15.7 65.2,17.5 69.1,17.5 68.7,15.7 	"/>
	<path class="st0" d="M74.1,16.6c0.2,0.2,0.5,0.3,0.8,0.2l2.9-0.7c0.2-0.1,0.4-0.2,0.4-0.4h-5.1L74.1,16.6z"/>
	<path class="st0" d="M73.6,2.1l0.6-1.5C74.3,0.2,74-0.1,73.6,0l-2.9,0.7c-0.3,0.1-0.5,0.3-0.6,0.5l-0.3,0.8H73.6z"/>
	<polygon class="st0" points="69,4.2 68.3,5.9 72.1,5.9 72.8,4.2 	"/>
	<polygon class="st0" points="66.3,5.9 65.8,4.2 61.9,4.2 62.4,5.9 	"/>
	<polygon class="st0" points="71.3,8 67.5,8 67.1,9.1 66.8,8 62.9,8 63.3,9.8 71.8,9.8 70.9,9 	"/>
	<polygon class="st0" points="68.8,11.9 70.8,13.7 76.2,13.7 74.2,11.9 	"/>
	<polygon class="st0" points="83.5,11.9 83.7,12.7 80.2,12.7 80.5,11.9 76.8,11.9 76.2,13.7 87.7,13.7 87.1,11.9 	"/>
	<polygon class="st0" points="75.6,15.7 75,17.5 78.8,17.5 79.3,16 84.7,16 85.1,17.5 89,17.5 88.4,15.7 	"/>
	<polygon class="st0" points="78.1,8 77.5,9.8 81.1,9.8 81.6,8 	"/>
	<polygon class="st0" points="82.3,8 82.8,9.8 86.4,9.8 85.9,8 	"/>
	<polygon class="st0" points="79.3,4.2 78.8,5.9 85.2,5.9 84.6,4.2 	"/>
</g>
</svg>
