<svg xmlns="http://www.w3.org/2000/svg" viewBox="0 0 88.97 17.51"><defs><style>.cls-1{fill:#030608;}</style></defs><title>logo</title><g id="Capa_1" data-name="Capa 1"><path class="cls-1" d="M15,12.7h-2.6a.64.64,0,0,0-.62.45,3.2,3.2,0,0,1-.29.51h3.86c0-.13.1-.25.14-.38C15.57,12.93,15.37,12.7,15,12.7Z" transform="translate(-0.05 0)"/><path class="cls-1" d="M11.77,8.29a.64.64,0,0,0,.62.44H15a.46.46,0,0,0,.49-.62l0-.08H11.63C11.67,8.12,11.73,8.2,11.77,8.29Z" transform="translate(-0.05 0)"/><path class="cls-1" d="M1.48,5.94h13a7.5,7.5,0,0,0-1.74-1.77H3.24A7.78,7.78,0,0,0,1.48,5.94Z" transform="translate(-0.05 0)"/><path class="cls-1" d="M.52,13.66H4.45a4.33,4.33,0,0,1-.79-1.77H.09A7.9,7.9,0,0,0,.52,13.66Z" transform="translate(-0.05 0)"/><path class="cls-1" d="M.43,8A8.43,8.43,0,0,0,.05,9.8H3.61A4.56,4.56,0,0,1,4.25,8Z" transform="translate(-0.05 0)"/><path class="cls-1" d="M1.67,15.74a7.48,7.48,0,0,0,2,1.77H12.3a7.18,7.18,0,0,0,1.95-1.77Z" transform="translate(-0.05 0)"/><path class="cls-1" d="M17.16,4.17V5.94h9.15s0-.06,0-.1V4.17Z" transform="translate(-0.05 0)"/><path class="cls-1" d="M17.16,8V9.8h8.61V9.52A.5.5,0,0,0,25.22,9H20.69V8Z" transform="translate(-0.05 0)"/><path class="cls-1" d="M17.16,11.89v1.77h3.53V12.28h4.53a.49.49,0,0,0,.53-.39Z" transform="translate(-0.05 0)"/><rect class="cls-1" x="17.11" y="15.74" width="9.27" height="1.77"/><polygon class="cls-1" points="33.88 13.66 38.32 13.66 39.06 11.89 36.11 11.89 36.1 11.91 36.09 11.89 33.13 11.89 33.88 13.66"/><path class="cls-1" d="M34.83,15.74a.62.62,0,0,0,.57.3h1.5a.62.62,0,0,0,.57-.3Z" transform="translate(-0.05 0)"/><rect class="cls-1" x="28.37" y="11.89" width="3.53" height="1.77"/><polygon class="cls-1" points="33.59 5.94 32.84 4.17 28.37 4.17 28.37 5.94 33.59 5.94"/><polygon class="cls-1" points="31.9 9.8 31.9 8.97 32.25 9.8 35.21 9.8 34.47 8.03 28.37 8.03 28.37 9.8 31.9 9.8"/><polygon class="cls-1" points="37.73 8.03 36.99 9.8 39.95 9.8 40.3 8.97 40.3 9.8 43.83 9.8 43.83 8.03 37.73 8.03"/><polygon class="cls-1" points="39.35 4.17 38.61 5.94 43.83 5.94 43.83 4.17 39.35 4.17"/><rect class="cls-1" x="40.3" y="11.89" width="3.53" height="1.77"/><rect class="cls-1" x="28.37" y="15.74" width="3.53" height="1.77"/><rect class="cls-1" x="40.3" y="15.74" width="3.53" height="1.77"/><path class="cls-1" d="M46.53,8V9.8h8.61V9.52A.5.5,0,0,0,54.59,9H50.06V8Z" transform="translate(-0.05 0)"/><path class="cls-1" d="M46.53,4.17V5.94h9.15s0-.06,0-.1V4.17Z" transform="translate(-0.05 0)"/><path class="cls-1" d="M46.53,11.89v1.77h3.53V12.28h4.53a.49.49,0,0,0,.53-.39Z" transform="translate(-0.05 0)"/><rect class="cls-1" x="46.48" y="15.74" width="9.27" height="1.77"/><rect class="cls-1" x="57.74" y="11.89" width="3.53" height="1.77"/><rect class="cls-1" x="57.74" y="15.74" width="3.53" height="1.77"/><rect class="cls-1" x="57.74" y="4.17" width="3.53" height="1.77"/><rect class="cls-1" x="57.74" y="8.03" width="3.53" height="1.77"/><polygon class="cls-1" points="64.27 13.66 68.18 13.66 67.75 11.89 63.84 11.89 64.27 13.66"/><polygon class="cls-1" points="64.79 15.74 65.22 17.51 69.14 17.51 68.7 15.74 64.79 15.74"/><path class="cls-1" d="M74.17,16.61a.8.8,0,0,0,.78.2l2.9-.72c.25-.06.38-.19.4-.35H73.18Z" transform="translate(-0.05 0)"/><path class="cls-1" d="M73.62,2.09,74.18.63c.18-.46-.08-.72-.54-.6l-2.9.71a.82.82,0,0,0-.6.54l-.32.81Z" transform="translate(-0.05 0)"/><polygon class="cls-1" points="68.96 4.17 68.27 5.94 72.1 5.94 72.78 4.17 68.96 4.17"/><polygon class="cls-1" points="66.28 5.94 65.84 4.17 61.93 4.17 62.37 5.94 66.28 5.94"/><polygon class="cls-1" points="71.31 8.03 67.46 8.03 67.05 9.08 66.79 8.03 62.88 8.03 63.32 9.8 71.83 9.8 70.94 9 71.31 8.03"/><polygon class="cls-1" points="68.77 11.89 70.77 13.66 76.15 13.66 74.17 11.89 68.77 11.89"/><polygon class="cls-1" points="83.47 11.89 83.71 12.7 80.25 12.7 80.49 11.89 76.83 11.89 76.25 13.66 87.71 13.66 87.14 11.89 83.47 11.89"/><polygon class="cls-1" points="75.57 15.74 75 17.51 78.83 17.51 79.27 16.02 84.69 16.02 85.13 17.51 88.97 17.51 88.39 15.74 75.57 15.74"/><polygon class="cls-1" points="78.08 8.03 77.51 9.8 81.11 9.8 81.63 8.03 78.08 8.03"/><polygon class="cls-1" points="82.33 8.03 82.85 9.8 86.45 9.8 85.88 8.03 82.33 8.03"/><polygon class="cls-1" points="79.34 4.17 78.76 5.94 85.2 5.94 84.62 4.17 79.34 4.17"/></g></svg>