<?xml version="1.0" encoding="utf-8"?>
<!-- Generator: Adobe Illustrator 23.1.0, SVG Export Plug-In . SVG Version: 6.00 Build 0)  -->
<svg version="1.1" id="Capa_1" xmlns="http://www.w3.org/2000/svg" xmlns:xlink="http://www.w3.org/1999/xlink" x="0px" y="0px"
	 viewBox="0 0 369.71 700" style="enable-background:new 0 0 369.71 700;" xml:space="preserve">
<style type="text/css">
	.st0{fill:#3E3E3D;}
	.st1{fill:#FFFFFF;stroke:#DB8F1B;stroke-miterlimit:10;}
	.st2{fill:none;stroke:#FFFFFF;stroke-width:3;stroke-miterlimit:10;}
	.st3{fill:#FFFFFF;}
	.st4{fill:none;stroke:#FFFFFF;stroke-miterlimit:10;}
	.st5{fill:none;stroke:#FFFFFF;stroke-width:2;stroke-miterlimit:10;}
	.st6{fill:#302F2E;}
	.st7{fill:none;stroke:#585757;stroke-width:3;stroke-miterlimit:10;}
	.st8{fill:none;stroke:#6E6E6E;stroke-width:5;}
	.st9{fill:none;stroke:#6E6E6E;stroke-width:8;}
	.st10{fill:none;stroke:#6E6E6E;stroke-width:1.6374;stroke-miterlimit:10;}
	.st11{fill:none;stroke:#DB8F1B;stroke-width:1.4476;stroke-miterlimit:10;}
	.st12{fill:none;stroke:#DB8F1B;stroke-width:7.4199;stroke-miterlimit:10;}
	.st13{fill-rule:evenodd;clip-rule:evenodd;fill:#FFFFFF;}
	.st14{fill:#C3007A;stroke:#FFFFFF;stroke-width:2;stroke-miterlimit:10;}
	.st15{fill:none;stroke:#FFFFFF;stroke-width:5;stroke-miterlimit:10;}
</style>
<g>
	<path class="st3" d="M38.28,345.22c2.98-5.75,7.24-10.22,12.78-13.41c5.54-3.19,12.06-4.79,19.56-4.79c6.45,0,12.22,1.21,17.3,3.63
		c5.08,2.42,9.22,5.84,12.41,10.26c3.19,4.42,5.31,9.57,6.36,15.46H82.09c-1.12-2.45-2.72-4.37-4.78-5.73
		c-2.07-1.37-4.44-2.05-7.1-2.05c-3.93,0-7.03,1.47-9.31,4.42c-2.28,2.95-3.42,6.91-3.42,11.88c0,4.98,1.14,8.94,3.42,11.88
		c2.28,2.95,5.38,4.42,9.31,4.42c2.66,0,5.03-0.68,7.1-2.05c2.07-1.37,3.66-3.28,4.78-5.73h24.61c-1.05,5.89-3.17,11.04-6.36,15.46
		c-3.19,4.42-7.33,7.84-12.41,10.25c-5.09,2.42-10.85,3.63-17.3,3.63c-7.5,0-14.02-1.59-19.56-4.79c-5.54-3.19-9.8-7.66-12.78-13.41
		c-2.98-5.75-4.47-12.3-4.47-19.67C33.81,357.53,35.3,350.97,38.28,345.22z"/>
	<path class="st3" d="M138.46,346.38v9.15h23.14v17.56h-23.14v10.52h26.29v18.62h-49.64v-74.46h49.64v18.61H138.46z"/>
	<path class="st3" d="M263.09,327.76v74.46h-23.24V365.1l-11.46,37.13H208.4l-11.46-37.13v37.13h-23.35v-74.46h28.61l16.41,44.7
		l15.99-44.7H263.09z"/>
	<path class="st3" d="M296.95,346.38v9.15h23.14v17.56h-23.14v10.52h26.29v18.62h-49.64v-74.46h49.64v18.61H296.95z"/>
	<path class="st3" d="M160.86,439.51v74.46h-23.35v-74.46H160.86z"/>
	<path class="st3" d="M216.39,513.97l-21.67-32.29v32.29h-23.35v-74.46h23.35v31.34l21.35-31.34h26.4l-25.66,35.65l27.34,38.81
		H216.39z"/>
	<path class="st3" d="M298.53,502.72h-24.82l-3.68,11.25h-24.51l27.24-74.46h26.92l27.13,74.46h-24.61L298.53,502.72z
		 M292.85,485.16l-6.73-20.72l-6.73,20.72H292.85z"/>
</g>
<g>
	<path class="st4" d="M299.09,163.67l-7.67,33.51h-13.06l-3.88-19.03l-3.88,19.03h-13.06l-7.67-33.51h11.31l3.03,21.11l4.54-21.11
		h11.45l4.54,21.11l3.03-21.11H299.09z"/>
	<path class="st4" d="M313.38,172.05v4.12h10.41v7.9h-10.41v4.73h11.83v8.38h-22.34v-33.51h22.34v8.38H313.38z"/>
</g>
<g>
	<path class="st5" d="M169.59,279.23h-24.82l-3.68,11.25h-24.5l27.24-74.46h26.92l27.13,74.46h-24.61L169.59,279.23z M163.91,261.66
		l-6.73-20.72l-6.73,20.72H163.91z"/>
	<path class="st5" d="M240.58,290.48l-13.99-26.71h-0.11v26.71h-23.35v-74.46h34.71c6.03,0,11.18,1.07,15.46,3.21
		c4.28,2.14,7.48,5.05,9.62,8.73c2.14,3.68,3.21,7.84,3.21,12.46c0,4.98-1.39,9.4-4.15,13.25c-2.77,3.86-6.75,6.63-11.94,8.31
		l16.2,28.5H240.58z M226.49,248.2h9.26c2.24,0,3.93-0.51,5.05-1.52c1.12-1.02,1.68-2.61,1.68-4.79c0-1.96-0.58-3.51-1.73-4.63
		c-1.16-1.12-2.82-1.68-5-1.68h-9.26V248.2z"/>
	<path class="st5" d="M296.95,234.63v9.15h23.14v17.56h-23.14v10.52h26.29v18.62h-49.64v-74.46h49.64v18.62H296.95z"/>
</g>
</svg>
